<svg version="1.1" width="945.333" height="945.333" viewBox="0 0 709 709" xmlns="http://www.w3.org/2000/svg" xmlns:xlink="http://www.w3.org/1999/xlink" overflow="hidden"><g stroke="none" fill="#000000" transform="matrix(0.1,0,0,-0.1,0,709)"><path d=" M 3360 7084 C 2842 7049 2421 6939 1985 6725 C 962 6224 234 5247 51 4130 C 15 3913 6 3792 6 3545 C 6 3298 15 3177 51 2960 C 263 1663 1205 573 2462 172 C 2827 55 3147 6 3545 6 C 3943 6 4263 55 4628 172 C 5885 573 6826 1662 7039 2960 C 7075 3177 7084 3298 7084 3545 C 7084 3792 7075 3913 7039 4130 C 6883 5082 6328 5943 5522 6483 C 5039 6808 4524 6998 3945 7065 C 3816 7080 3466 7091 3360 7084 Z M 4533 5452 C 4606 5422 4682 5348 4718 5273 L 4745 5215 L 4748 4644 L 4750 4072 L 4813 4049 C 5119 3937 5398 3708 5563 3433 C 5950 2790 5805 1969 5225 1503 C 4744 1117 4072 1075 3537 1397 C 3318 1528 3134 1723 3008 1957 L 2969 2029 L 2617 2032 C 2322 2035 2258 2038 2222 2052 C 2124 2089 2048 2166 2010 2267 C 1990 2321 1990 2332 1992 3768 L 1995 5215 L 2022 5272 C 2070 5374 2163 5448 2273 5470 C 2296 5474 2801 5477 3395 5477 L 4475 5475 L 4533 5452 Z" stroke="none" stroke-width="1" stroke-dasharray="" stroke-dashoffset="1" fill="#293592" fill-opacity="1"/><path d=" M 2340 4444 L 2340 3758 L 2363 3772 C 2375 3780 2470 3837 2573 3899 C 2733 3995 2765 4011 2783 4002 C 2795 3997 2892 3940 2998 3876 C 3104 3812 3193 3760 3196 3760 C 3198 3760 3200 4068 3200 4445 L 3200 5130 L 2770 5130 L 2340 5130 L 2340 4444 Z" stroke="none" stroke-width="1" stroke-dasharray="" stroke-dashoffset="1" fill="#293592" fill-opacity="1"/><path d=" M 4626 3371 C 4623 3367 4609 3325 4594 3279 C 4579 3233 4550 3153 4528 3102 C 4506 3051 4491 3006 4494 3002 C 4510 2987 4613 3056 4682 3129 C 4746 3195 4820 3308 4820 3338 C 4820 3344 4787 3353 4748 3360 C 4708 3366 4665 3373 4653 3375 C 4641 3378 4629 3376 4626 3371 Z" stroke="none" stroke-width="1" stroke-dasharray="" stroke-dashoffset="1" fill="#293592" fill-opacity="1"/><path d=" M 3760 3362 C 3760 3358 3774 3335 3791 3310 C 3857 3213 3900 3105 3900 3038 C 3900 3022 3905 3010 3911 3010 C 3917 3010 3955 3026 3996 3045 C 4064 3076 4071 3082 4065 3102 C 4045 3166 3964 3254 3868 3314 C 3806 3353 3760 3374 3760 3362 Z" stroke="none" stroke-width="1" stroke-dasharray="" stroke-dashoffset="1" fill="#293592" fill-opacity="1"/><path d=" M 4140 3361 C 4140 3357 4154 3336 4170 3315 C 4218 3255 4260 3159 4273 3084 C 4279 3046 4285 3014 4285 3012 C 4286 3011 4323 3026 4368 3046 L 4448 3082 L 4435 3121 C 4415 3176 4376 3224 4311 3274 C 4215 3347 4140 3386 4140 3361 Z" stroke="none" stroke-width="1" stroke-dasharray="" stroke-dashoffset="1" fill="#293592" fill-opacity="1"/><path d=" M 3625 2963 C 3616 2901 3590 2808 3570 2763 C 3546 2709 3556 2708 3646 2750 C 3689 2771 3724 2798 3757 2835 L 3805 2890 L 4305 2890 L 4805 2890 L 4851 2837 C 4895 2787 5006 2720 5045 2720 C 5064 2720 5064 2718 5035 2782 C 5021 2813 5002 2874 4993 2920 L 4977 3003 L 4911 2996 C 4875 2993 4833 2990 4818 2990 C 4800 2990 4790 2985 4790 2975 C 4790 2962 4729 2960 4304 2960 C 3898 2960 3819 2962 3823 2974 C 3827 2984 3811 2989 3753 2994 C 3628 3004 3632 3005 3625 2963 Z" stroke="none" stroke-width="1" stroke-dasharray="" stroke-dashoffset="1" fill="#293592" fill-opacity="1"/><path d=" M 3830 2705 L 3830 2670 L 4146 2670 L 4462 2670 L 4324 2526 L 4185 2381 L 3908 2381 L 3630 2380 L 3630 2350 L 3630 2320 L 3905 2320 L 4180 2320 L 4180 2143 C 4180 1973 4179 1965 4155 1924 C 4141 1900 4109 1868 4080 1849 C 4053 1832 4033 1814 4035 1810 C 4044 1796 4147 1822 4218 1856 C 4331 1911 4337 1925 4346 2143 L 4353 2320 L 4666 2320 L 4980 2320 L 4980 2350 L 4980 2380 L 4665 2380 C 4492 2380 4350 2383 4351 2388 C 4351 2394 4453 2487 4682 2692 L 4735 2740 L 4283 2740 L 3830 2740 L 3830 2705 Z" stroke="none" stroke-width="1" stroke-dasharray="" stroke-dashoffset="1" fill="#293592" fill-opacity="1"/></g></svg>